<?xml version="1.0" encoding="utf-8"?><svg xmlns="http://www.w3.org/2000/svg" xmlns:xlink="http://www.w3.org/1999/xlink" width="1366" height="699" preserveAspectRatio="xMidYMid" viewBox="0 0 1366 699" style="z-index:1;margin-right:-2px;display:block;background-color:rgb(241, 242, 243);animation-play-state:paused" ><g transform="translate(683,349.5) scale(1,1) translate(-683,-349.5)" style="transform:matrix(1, 0, 0, 1, 0, 0);animation-play-state:paused" ><path d="M -100 420.32 C -74.29 409.94 -73.57 414.81 -49.48 414.81 S -22.84 413.33 1.03 413.33 S 27.85 422.84 51.55 422.84 S 77.86 416.16 102.06 416.16 S 127.61 419.23 152.58 419.23 S 177.94 412.52 203.1 412.52 S 229.07 421.93 253.61 421.93 S 279.35 421.03 304.13 421.03 S 330.04 414.51 354.65 414.51 S 380.04 408.9 405.16 408.9 S 432.04 421.84 455.68 421.84 S 481.66 421.63 506.19 421.63 S 533.06 416.84 556.71 416.84 S 583.62 410.93 607.23 410.93 S 633.52 418.6 657.74 418.6 S 683.88 406.38 708.26 406.38 S 733.66 419.01 758.77 419.01 S 784.34 406.88 809.29 406.88 S 834.99 422.03 859.81 422.03 S 886.31 407.95 910.32 407.95 S 936.9 408.99 960.84 408.99 S 987.28 412.55 1011.35 412.55 S 1036.72 406.44 1061.87 406.44 S 1088.3 416.55 1112.39 416.55 S 1137.81 418.17 1162.9 418.17 S 1189.88 421.21 1213.42 421.21 S 1239.63 413.23 1263.94 413.23 S 1289.39 414.41 1314.45 414.41 S 1340.86 407.61 1364.97 407.61 S 1390.57 420.76 1415.48 420.76 S 1440.9 418.24 1466 418.24 S 1492.66 406.65 1516.52 406.65 L 1466 699 L -100 699 Z" fill="#346b21" stroke-width="0" transform="matrix(1,0,0,1,0,0)" style="transform:matrix(1, 0, 0, 1, 0, 0);animation-play-state:paused" ></path>
<path d="M -100 434.71 C -73.16 437.19 -73.19 430.72 -48.15 430.72 S -21.91 425.14 3.71 425.14 S 30.94 432.73 55.56 432.73 S 83.09 428.54 107.42 428.54 S 134.01 433.22 159.27 433.22 S 186.76 437.97 211.13 437.97 S 238.72 440.18 262.98 440.18 S 290.47 427.21 314.83 427.21 S 341.89 431.39 366.69 431.39 S 393.57 426.5 418.54 426.5 S 445.9 427.22 470.4 427.22 S 498.03 429.78 522.25 429.78 S 549.52 443.81 574.11 443.81 S 600.23 432.33 625.96 432.33 S 652.89 434.59 677.81 434.59 S 705.28 434.39 729.67 434.39 S 756.92 433.93 781.52 433.93 S 807.79 430.61 833.38 430.61 S 860.41 435.7 885.23 435.7 S 912.64 433.37 937.09 433.37 S 964.23 433.08 988.94 433.08 S 1015.55 436.9 1040.79 436.9 S 1068.02 432.16 1092.65 432.16 S 1120.19 425.24 1144.5 425.24 S 1171.99 440.34 1196.36 440.34 S 1222.86 441.22 1248.21 441.22 S 1275.83 434.89 1300.07 434.89 S 1327.15 435.77 1351.92 435.77 S 1379.28 426.73 1403.77 426.73 S 1430.8 433.34 1455.63 433.34 S 1481.92 426.88 1507.48 426.88 L 1466 699 L -100 699 Z" fill="#3c7524" stroke-width="0" transform="matrix(1,0,0,1,1.1340199708938599,0)" style="transform:matrix(1, 0, 0, 1, 1.13402, 0);animation-play-state:paused" ></path>
<path d="M -100 450.16 C -72.28 453.13 -73.22 449.9 -46.73 449.9 S -20.09 443.3 6.53 443.3 S 33.75 453.61 59.8 453.61 S 87.4 442.78 113.06 442.78 S 141.34 463.48 166.33 463.48 S 194.42 449.27 219.59 449.27 S 247.45 451.25 272.86 451.25 S 300.12 455.52 326.12 455.52 S 354.02 461.26 379.39 461.26 S 407.53 444.51 432.65 444.51 S 460.21 454.51 485.92 454.51 S 513.41 448.34 539.18 448.34 S 566.75 450.83 592.45 450.83 S 620.06 442.32 645.71 442.32 S 672.67 449.78 698.98 449.78 S 727.11 448.46 752.24 448.46 S 779.66 463.83 805.51 463.83 S 832.37 440.96 858.78 440.96 S 887.06 464.16 912.04 464.16 S 940.36 444.53 965.31 444.53 S 992.18 448.55 1018.57 448.55 S 1045.23 442.14 1071.84 442.14 S 1099.58 461.97 1125.1 461.97 S 1153.38 457.55 1178.37 457.55 S 1205.29 463.72 1231.63 463.72 S 1259.21 448 1284.9 448 S 1312.62 445.45 1338.16 445.45 S 1365.16 452.54 1391.43 452.54 S 1419.36 455.52 1444.69 455.52 S 1471.54 450.85 1497.96 450.85 L 1466 699 L -100 699 Z" fill="#447f26" stroke-width="0" transform="matrix(1,0,0,1,3.5863146781921387,0)" style="transform:matrix(1, 0, 0, 1, 3.58631, 0);animation-play-state:paused" ></path>
<path d="M -100 460.16 C -72.42 472.67 -72.34 469.71 -45.24 469.71 S -16.5 471.2 9.51 471.2 S 37.44 483.35 64.27 483.35 S 92.77 468.62 119.02 468.62 S 148.02 483.14 173.78 483.14 S 202.44 469.56 228.53 469.56 S 256.72 476.57 283.29 476.57 S 312.3 475.2 338.04 475.2 S 366.58 479.3 392.8 479.3 S 420.44 471.25 447.55 471.25 S 476.21 475.45 502.31 475.45 S 529.89 470.41 557.06 470.41 S 585.81 475.89 611.82 475.89 S 640.38 473.77 666.57 473.77 S 695.59 470.13 721.33 470.13 S 749.52 457.86 776.08 457.86 S 804.87 469.79 830.84 469.79 S 859.89 465.71 885.59 465.71 S 913.33 479.97 940.35 479.97 S 969.43 481.78 995.1 481.78 S 1022.62 483.27 1049.86 483.27 S 1078.27 462.63 1104.62 462.63 S 1133.05 484.28 1159.37 484.28 S 1186.85 472.09 1214.13 472.09 S 1243.04 472.4 1268.88 472.4 S 1298.01 463.63 1323.64 463.63 S 1352.26 485.01 1378.39 485.01 S 1406.78 474.67 1433.15 474.67 S 1461.16 473.81 1487.9 473.81 L 1466 699 L -100 699 Z" fill="#4d8929" stroke-width="0" transform="matrix(1,0,0,1,6.4136857986450195,0)" style="transform:matrix(1, 0, 0, 1, 6.41369, 0);animation-play-state:paused" ></path>
<path d="M -100 483.15 C -71.45 485.69 -71.65 500.79 -43.67 500.79 S -14.78 476.9 12.66 476.9 S 42.15 490.5 68.99 490.5 S 98.72 491.87 125.32 491.87 S 155.19 498.08 181.65 498.08 S 211.17 481.17 237.99 481.17 S 267.27 500.44 294.32 500.44 S 323.17 490.78 350.65 490.78 S 379.08 498.7 406.98 498.7 S 436.05 485.23 463.31 485.23 S 491.79 492.52 519.64 492.52 S 548.72 476.8 575.97 476.8 S 605.56 506.37 632.3 506.37 S 661.33 489.24 688.63 489.24 S 717.26 506.11 744.96 506.11 S 773.93 481.98 801.29 481.98 S 829.54 491.81 857.63 491.81 S 886.85 486.3 913.96 486.3 S 942.66 490.25 970.29 490.25 S 998.89 487.64 1026.62 487.64 S 1054.83 481.79 1082.95 481.79 S 1111.31 487.58 1139.28 487.58 S 1167.73 502.57 1195.61 502.57 S 1224.25 485.89 1251.94 485.89 S 1281.02 503.48 1308.27 503.48 S 1336.85 484.51 1364.6 484.51 S 1393.91 489.86 1420.94 489.86 S 1450.39 476.73 1477.27 476.73 L 1466 699 L -100 699 Z" fill="#56932b" stroke-width="0" transform="matrix(1,0,0,1,8.86598014831543,0)" style="transform:matrix(1, 0, 0, 1, 8.86598, 0);animation-play-state:paused" ></path>
<path d="M -100 508.53 C -69.77 493.53 -69.4 524.82 -42 524.82 S -12.05 499.71 16 499.71 S 45.91 519.69 74 519.69 S 103.49 504.42 132 504.42 S 162.41 513.53 190 513.53 S 220.69 503.38 248 503.38 S 278.07 513.62 306 513.62 S 335.11 501.56 364 501.56 S 394.19 518.41 422 518.41 S 451.47 501.72 480 501.72 S 509.6 524.89 538 524.89 S 568.22 503.82 596 503.82 S 626.29 511.48 654 511.48 S 684.41 504 712 504 S 741.38 517.28 770 517.28 S 799.38 505.03 828 505.03 S 858.25 505.03 886 505.03 S 915.61 495.82 944 495.82 S 974.13 495.57 1002 495.57 S 1032.3 503.89 1060 503.89 S 1090.26 523.9 1118 523.9 S 1147.93 493.49 1176 493.49 S 1206.12 514.39 1234 514.39 S 1264.35 497.33 1292 497.33 S 1321.9 523.79 1350 523.79 S 1379.23 507.74 1408 507.74 S 1438.4 514.31 1466 514.31 S 1495.06 498.48 1524 498.48 L 1466 699 L -100 699 Z" fill="#609d2e" stroke-width="0" transform="matrix(1,0,0,1,10,0)" style="transform:matrix(1, 0, 0, 1, 10, 0);animation-play-state:paused" ></path>
<path d="M -100 516.27 C -69.53 514.73 -69.47 534.21 -40.23 534.21 S -9.94 518.76 19.54 518.76 S 50.27 543.18 79.31 543.18 S 110.54 510.85 139.08 510.85 S 169.89 534.45 198.85 534.45 S 228.95 521.51 258.63 521.51 S 289.76 533.79 318.4 533.79 S 348.9 533 378.17 533 S 408.16 535.41 437.94 535.41 S 469.14 536.3 497.71 536.3 S 527.86 548.34 557.48 548.34 S 587.75 538.98 617.25 538.98 S 648.65 539.79 677.02 539.79 S 708.02 545.62 736.79 545.62 S 767.5 510.64 796.56 510.64 S 826.9 524.19 856.34 524.19 S 886.41 544.77 916.11 544.77 S 946.74 523.39 975.88 523.39 S 1006.16 512.61 1035.65 512.61 S 1066.52 513.97 1095.42 513.97 S 1126.48 542.4 1155.19 542.4 S 1186.26 548.56 1214.96 548.56 S 1245.82 534.77 1274.73 534.77 S 1304.71 516.14 1334.5 516.14 S 1365.75 539.88 1394.27 539.88 S 1425.14 527.02 1454.05 527.02 S 1485.15 536.72 1513.82 536.72 L 1466 699 L -100 699 Z" fill="#69a730" stroke-width="0" transform="matrix(1,0,0,1,8.86598014831543,0)" style="transform:matrix(1, 0, 0, 1, 8.86598, 0);animation-play-state:paused" ></path>
<path d="M -100 544.32 C -68.81 542.9 -68.56 557.32 -38.35 557.32 S -5.93 538.5 23.31 538.5 S 55.82 540.43 84.96 540.43 S 116.94 543.14 146.61 543.14 S 178.98 558.54 208.27 558.54 S 240.3 561.96 269.92 561.96 S 301.65 563.62 331.57 563.62 S 363.38 536.47 393.23 536.47 S 425.09 569.41 454.88 569.41 S 486.07 529.52 516.54 529.52 S 548.86 555.08 578.19 555.08 S 609.33 532.64 639.84 532.64 S 671.69 563.5 701.5 563.5 S 732.37 537.01 763.15 537.01 S 794.9 537.74 824.8 537.74 S 856.07 535.06 886.46 535.06 S 918.89 565.61 948.11 565.61 S 980.23 534.44 1009.76 534.44 S 1041.96 563.09 1071.42 563.09 S 1102.52 533.24 1133.07 533.24 S 1164.49 565.63 1194.72 565.63 S 1227.16 531.8 1256.38 531.8 S 1288.4 555.52 1318.03 555.52 S 1349.31 541.25 1379.69 541.25 S 1411.38 533.33 1441.34 533.33 S 1472.3 532.93 1502.99 532.93 L 1466 699 L -100 699 Z" fill="#73b232" stroke-width="0" transform="matrix(1,0,0,1,6.4136857986450195,0)" style="transform:matrix(1, 0, 0, 1, 6.41369, 0);animation-play-state:paused" ></path>
<path d="M -100 589.77 C -66.77 588.38 -66.67 583.42 -36.34 583.42 S -4.32 557.2 27.32 557.2 S 59.54 581.22 90.98 581.22 S 122.81 586.59 154.63 586.59 S 186.49 576.37 218.29 576.37 S 251.41 547.46 281.95 547.46 S 314.42 552.53 345.61 552.53 S 377.89 556.85 409.27 556.85 S 442.53 587.36 472.93 587.36 S 506.14 560.26 536.59 560.26 S 569.82 584.11 600.24 584.11 S 633.44 551.41 663.9 551.41 S 696.69 584.78 727.56 584.78 S 761.01 548.57 791.22 548.57 S 823.29 574.16 854.88 574.16 S 887.43 551.72 918.54 551.72 S 951.49 574.78 982.2 574.78 S 1015.44 587.76 1045.85 587.76 S 1077.82 590.05 1109.51 590.05 S 1141.82 549.96 1173.17 549.96 S 1205.49 574.66 1236.83 574.66 S 1269.94 558.32 1300.49 558.32 S 1333.2 549.88 1364.15 549.88 S 1397.23 588.13 1427.8 588.13 S 1461.15 584.54 1491.46 584.54 L 1466 699 L -100 699 Z" fill="#7ebc34" stroke-width="0" transform="matrix(1,0,0,1,3.5863142013549805,0)" style="transform:matrix(1, 0, 0, 1, 3.58631, 0);animation-play-state:paused" ></path>
<path d="M -100 562.93 C -66.93 578.79 -65.6 600.7 -34.2 600.7 S -1.16 564.71 31.6 564.71 S 65.01 606.59 97.39 606.59 S 131.61 570.66 163.19 570.66 S 197.78 608.59 228.99 608.59 S 262.27 610.79 294.79 610.79 S 327.96 604.55 360.59 604.55 S 393.58 567.13 426.39 567.13 S 460.62 600.91 492.18 600.91 S 525.52 602.48 557.98 602.48 S 591.91 605.44 623.78 605.44 S 657.82 576.82 689.58 576.82 S 723.91 607.65 755.38 607.65 S 788.75 573.76 821.18 573.76 S 855.37 598.89 886.97 598.89 S 920.55 573.17 952.77 573.17 S 986.89 599.1 1018.57 599.1 S 1052.97 579.35 1084.37 579.35 S 1118.55 602.64 1150.17 602.64 S 1183.8 575.12 1215.97 575.12 S 1249.44 610.73 1281.76 610.73 S 1315.26 579.9 1347.56 579.9 S 1382.19 594.75 1413.36 594.75 S 1446.37 576.33 1479.16 576.33 L 1466 699 L -100 699 Z" fill="#89c735" stroke-width="0" transform="matrix(1,0,0,1,1.1340198516845703,0)" style="transform:matrix(1, 0, 0, 1, 1.13402, 0);animation-play-state:paused" ></path></g></svg>