<?xml version="1.0" encoding="utf-8"?><svg xmlns="http://www.w3.org/2000/svg" xmlns:xlink="http://www.w3.org/1999/xlink" width="1366" height="699" preserveAspectRatio="xMidYMid" viewBox="0 0 1366 699" style="z-index:1;margin-right:-2px;display:block;background-color:rgb(241, 242, 243);animation-play-state:paused" ><g transform="translate(683,349.5) scale(1,1) translate(-683,-349.5)" style="transform:matrix(1, 0, 0, 1, 0, 0);animation-play-state:paused" ><defs style="animation-play-state:paused" ><linearGradient id="ldbk-photon-07azr2yvxyyn-lg" x1="658" x2="1366" y1="0" y2="0" gradientUnits="userSpaceOnUse" style="animation-play-state:paused" ><stop stop-color="#346b21" offset="0" style="animation-play-state:paused" ></stop>

    
<stop stop-color="#94d137" offset="1" style="animation-play-state:paused" ></stop></linearGradient>

  
<mask id="ldbk-photon-07azr2yvxyyn-mask" style="animation-play-state:paused" ><g style="animation-play-state:paused" ><path d="M1666 -0.5 L685.6977842017784 -0.5 A15.5 15.5 0 0 1 685.6977842017784 31.5 L1666 31.5" fill="#fff" transform="matrix(1,0,0,1,47.08238983154297,0)" style="transform:matrix(1, 0, 0, 1, 47.0824, 0);animation-play-state:paused" ></path>
<path d="M1419.0440617658483 -0.5 L1441.0881235316965 -0.5 A15.5 15.5 0 0 1 1441.0881235316965 31.5 L1419.0440617658483 31.5 A15.5 15.5 0 0 1 1419.0440617658483 -0.5" fill="#000" transform="matrix(1,0,0,1,0,0)" opacity="1" style="transform:matrix(1, 0, 0, 1, 0, 0);animation-play-state:paused" ></path>
<path d="M1666 30.5 L646.3784448036764 30.5 A15.5 15.5 0 0 0 646.3784448036764 62.5 L1666 62.5" fill="#fff" transform="matrix(1,0,0,1,-3.6209068298339844,0)" style="transform:matrix(1, 0, 0, 1, -3.62091, 0);animation-play-state:paused" ></path>
<path d="M715.153156011227 30.5 L752.8105066005699 30.5 A15.5 15.5 0 0 1 752.8105066005699 62.5 L715.153156011227 62.5 A15.5 15.5 0 0 1 715.153156011227 30.5" fill="#fff" transform="matrix(1,0,0,1,0,0)" opacity="1" style="transform:matrix(1, 0, 0, 1, 0, 0);animation-play-state:paused" ></path>
<path d="M1666 61.5 L662.4831396009426 61.5 A15.5 15.5 0 0 1 662.4831396009426 93.5 L1666 93.5" fill="#fff" transform="matrix(1,0,0,1,14.25436019897461,0)" style="transform:matrix(1, 0, 0, 1, 14.2544, 0);animation-play-state:paused" ></path>
<path d="M1412.534340222753 61.5 L1428.0686804455058 61.5 A15.5 15.5 0 0 1 1428.0686804455058 93.5 L1412.534340222753 93.5 A15.5 15.5 0 0 1 1412.534340222753 61.5" fill="#000" transform="matrix(1,0,0,1,-417.6427001953125,0)" opacity="1" style="transform:matrix(1, 0, 0, 1, -417.643, 0);animation-play-state:paused" ></path>
<path d="M1666 92.5 L629.9354691442533 92.5 A15.5 15.5 0 0 0 629.9354691442533 124.5 L1666 124.5" fill="#fff" transform="matrix(1,0,0,1,-23.833425521850586,0)" style="transform:matrix(1, 0, 0, 1, -23.8334, 0);animation-play-state:paused" ></path>
<path d="M702.0839095085588 92.5 L720.1874084161691 92.5 A15.5 15.5 0 0 1 720.1874084161691 124.5 L702.0839095085588 124.5 A15.5 15.5 0 0 1 702.0839095085588 92.5" fill="#fff" transform="matrix(1,0,0,1,0,0)" opacity="0.869565" style="transform:matrix(1, 0, 0, 1, 0, 0);opacity:0.869565;animation-play-state:paused" ></path>
<path d="M1666 123.5 L646.4154277414015 123.5 A15.5 15.5 0 0 1 646.4154277414015 155.5 L1666 155.5" fill="#fff" transform="matrix(1,0,0,1,47.46812057495117,0)" style="transform:matrix(1, 0, 0, 1, 47.4681, 0);animation-play-state:paused" ></path>
<path d="M1422.2001029649698 123.5 L1447.4002059299396 123.5 A15.5 15.5 0 0 1 1447.4002059299396 155.5 L1422.2001029649698 155.5 A15.5 15.5 0 0 1 1422.2001029649698 123.5" fill="#000" transform="matrix(1,0,0,1,-49.720741271972656,0)" opacity="1" style="transform:matrix(1, 0, 0, 1, -49.7207, 0);animation-play-state:paused" ></path>
<path d="M1666 154.5 L575.5846158921429 154.5 A15.5 15.5 0 0 0 575.5846158921429 186.5 L1666 186.5" fill="#fff" transform="matrix(1,0,0,1,-8.351329803466797,0)" style="transform:matrix(1, 0, 0, 1, -8.35133, 0);animation-play-state:paused" ></path>
<path d="M718.826647038743 154.5 L752.2358141113132 154.5 A15.5 15.5 0 0 1 752.2358141113132 186.5 L718.826647038743 186.5 A15.5 15.5 0 0 1 718.826647038743 154.5" fill="#fff" transform="matrix(1,0,0,1,0,0)" opacity="0.0621116" style="transform:matrix(1, 0, 0, 1, 0, 0);opacity:0.0621116;animation-play-state:paused" ></path>
<path d="M1666 185.5 L656.3057069317081 185.5 A15.5 15.5 0 0 1 656.3057069317081 217.5 L1666 217.5" fill="#fff" transform="matrix(1,0,0,1,4.559871673583984,0)" style="transform:matrix(1, 0, 0, 1, 4.55987, 0);animation-play-state:paused" ></path>
<path d="M1408.946652798642 185.5 L1420.8933055972839 185.5 A15.5 15.5 0 0 1 1420.8933055972839 217.5 L1408.946652798642 217.5 A15.5 15.5 0 0 1 1408.946652798642 185.5" fill="#000" transform="matrix(1,0,0,1,-442.2844543457031,0)" opacity="0.931677" style="transform:matrix(1, 0, 0, 1, -442.284, 0);opacity:0.931677;animation-play-state:paused" ></path>
<path d="M1666 216.5 L587.110802657616 216.5 A15.5 15.5 0 0 0 587.110802657616 248.5 L1666 248.5" fill="#fff" transform="matrix(1,0,0,1,-26.104206085205078,0)" style="transform:matrix(1, 0, 0, 1, -26.1042, 0);animation-play-state:paused" ></path>
<path d="M728.999160204653 216.5 L752.8146487590865 216.5 A15.5 15.5 0 0 1 752.8146487590865 248.5 L728.999160204653 248.5 A15.5 15.5 0 0 1 728.999160204653 216.5" fill="#fff" transform="matrix(1,0,0,1,0,0)" opacity="0.372671" style="transform:matrix(1, 0, 0, 1, 0, 0);opacity:0.372671;animation-play-state:paused" ></path>
<path d="M1666 247.5 L659.1439590401819 247.5 A15.5 15.5 0 0 1 659.1439590401819 279.5 L1666 279.5" fill="#fff" transform="matrix(1,0,0,1,35.17599868774414,0)" style="transform:matrix(1, 0, 0, 1, 35.176, 0);animation-play-state:paused" ></path>
<path d="M1412.6124251595784 247.5 L1428.2248503191568 247.5 A15.5 15.5 0 0 1 1428.2248503191568 279.5 L1412.6124251595784 279.5 A15.5 15.5 0 0 1 1412.6124251595784 247.5" fill="#000" transform="matrix(1,0,0,1,-71.85933685302734,0)" opacity="1" style="transform:matrix(1, 0, 0, 1, -71.8593, 0);animation-play-state:paused" ></path>
<path d="M1666 278.5 L613.6746058372252 278.5 A15.5 15.5 0 0 0 613.6746058372252 310.5 L1666 310.5" fill="#fff" transform="matrix(1,0,0,1,-7.011783599853516,0)" style="transform:matrix(1, 0, 0, 1, -7.01178, 0);animation-play-state:paused" ></path>
<path d="M744.6024922743471 278.5 L770.6099138115756 278.5 A15.5 15.5 0 0 1 770.6099138115756 310.5 L744.6024922743471 310.5 A15.5 15.5 0 0 1 744.6024922743471 278.5" fill="#fff" transform="matrix(1,0,0,1,0,0)" opacity="1" style="transform:matrix(1, 0, 0, 1, 0, 0);animation-play-state:paused" ></path>
<path d="M1666 309.5 L670.4832584160603 309.5 A15.5 15.5 0 0 1 670.4832584160603 341.5 L1666 341.5" fill="#fff" transform="matrix(1,0,0,1,1.954026222229004,0)" style="transform:matrix(1, 0, 0, 1, 1.95403, 0);animation-play-state:paused" ></path>
<path d="M1408.1560395084698 309.5 L1419.3120790169396 309.5 A15.5 15.5 0 0 1 1419.3120790169396 341.5 L1408.1560395084698 341.5 A15.5 15.5 0 0 1 1408.1560395084698 309.5" fill="#000" transform="matrix(1,0,0,1,-847.7933959960938,0)" opacity="0.559006" style="transform:matrix(1, 0, 0, 1, -847.793, 0);opacity:0.559006;animation-play-state:paused" ></path>
<path d="M1666 340.5 L643.6068680853062 340.5 A15.5 15.5 0 0 0 643.6068680853062 372.5 L1666 372.5" fill="#fff" transform="matrix(1,0,0,1,-1.0221977233886719,0)" style="transform:matrix(1, 0, 0, 1, -1.0222, 0);animation-play-state:paused" ></path>
<path d="M715.0568923906179 340.5 L751.3585708119964 340.5 A15.5 15.5 0 0 1 751.3585708119964 372.5 L715.0568923906179 372.5 A15.5 15.5 0 0 1 715.0568923906179 340.5" fill="#fff" transform="matrix(1,0,0,1,0,0)" opacity="0.186335" style="transform:matrix(1, 0, 0, 1, 0, 0);opacity:0.186335;animation-play-state:paused" ></path>
<path d="M1666 371.5 L689.289767660322 371.5 A15.5 15.5 0 0 1 689.289767660322 403.5 L1666 403.5" fill="#fff" transform="matrix(1,0,0,1,38.40273666381836,0)" style="transform:matrix(1, 0, 0, 1, 38.4027, 0);animation-play-state:paused" ></path>
<path d="M1426.176909899978 371.5 L1455.353819799956 371.5 A15.5 15.5 0 0 1 1455.353819799956 403.5 L1426.176909899978 403.5 A15.5 15.5 0 0 1 1426.176909899978 371.5" fill="#000" transform="matrix(1,0,0,1,-640.9498291015625,0)" opacity="0.621118" style="transform:matrix(1, 0, 0, 1, -640.95, 0);opacity:0.621118;animation-play-state:paused" ></path>
<path d="M1666 402.5 L656.7092474284011 402.5 A15.5 15.5 0 0 0 656.7092474284011 434.5 L1666 434.5" fill="#fff" transform="matrix(1,0,0,1,-47.12283706665039,0)" style="transform:matrix(1, 0, 0, 1, -47.1228, 0);animation-play-state:paused" ></path>
<path d="M719.7777599464118 402.5 L755.0186838874623 402.5 A15.5 15.5 0 0 1 755.0186838874623 434.5 L719.7777599464118 434.5 A15.5 15.5 0 0 1 719.7777599464118 402.5" fill="#fff" transform="matrix(1,0,0,1,0,0)" opacity="1" style="transform:matrix(1, 0, 0, 1, 0, 0);animation-play-state:paused" ></path>
<path d="M1666 433.5 L704.9039104224624 433.5 A15.5 15.5 0 0 1 704.9039104224624 465.5 L1666 465.5" fill="#fff" transform="matrix(1,0,0,1,0.11795425415039062,0)" style="transform:matrix(1, 0, 0, 1, 0.117954, 0);animation-play-state:paused" ></path>
<path d="M1427.6644676636047 433.5 L1458.3289353272094 433.5 A15.5 15.5 0 0 1 1458.3289353272094 465.5 L1427.6644676636047 465.5 A15.5 15.5 0 0 1 1427.6644676636047 433.5" fill="#000" transform="matrix(1,0,0,1,-1036.54345703125,0)" opacity="0.248447" style="transform:matrix(1, 0, 0, 1, -1036.54, 0);opacity:0.248447;animation-play-state:paused" ></path>
<path d="M1666 464.5 L639.845670902365 464.5 A15.5 15.5 0 0 0 639.845670902365 496.5 L1666 496.5" fill="#fff" transform="matrix(1,0,0,1,-48.9382209777832,0)" style="transform:matrix(1, 0, 0, 1, -48.9382, 0);animation-play-state:paused" ></path>
<path d="M783.884884619626 464.5 L798.3503325579333 464.5 A15.5 15.5 0 0 1 798.3503325579333 496.5 L783.884884619626 496.5 A15.5 15.5 0 0 1 783.884884619626 464.5" fill="#fff" transform="matrix(1,0,0,1,0,0)" opacity="0.186335" style="transform:matrix(1, 0, 0, 1, 0, 0);opacity:0.186335;animation-play-state:paused" ></path>
<path d="M1666 495.5 L699.1789243194712 495.5 A15.5 15.5 0 0 1 699.1789243194712 527.5 L1666 527.5" fill="#fff" transform="matrix(1,0,0,1,25.704544067382812,0)" style="transform:matrix(1, 0, 0, 1, 25.7045, 0);animation-play-state:paused" ></path>
<path d="M1423.561011569857 495.5 L1450.1220231397142 495.5 A15.5 15.5 0 0 1 1450.1220231397142 527.5 L1423.561011569857 527.5 A15.5 15.5 0 0 1 1423.561011569857 495.5" fill="#000" transform="matrix(1,0,0,1,-145.2421417236328,0)" opacity="1" style="transform:matrix(1, 0, 0, 1, -145.242, 0);animation-play-state:paused" ></path>
<path d="M1666 526.5 L645.16844878745 526.5 A15.5 15.5 0 0 0 645.16844878745 558.5 L1666 558.5" fill="#fff" transform="matrix(1,0,0,1,-29.10043716430664,0)" style="transform:matrix(1, 0, 0, 1, -29.1004, 0);animation-play-state:paused" ></path>
<path d="M773.1314477062253 526.5 L784.7390511186902 526.5 A15.5 15.5 0 0 1 784.7390511186902 558.5 L773.1314477062253 558.5 A15.5 15.5 0 0 1 773.1314477062253 526.5" fill="#fff" transform="matrix(1,0,0,1,0,0)" opacity="1" style="transform:matrix(1, 0, 0, 1, 0, 0);animation-play-state:paused" ></path>
<path d="M1666 557.5 L680.7351403872281 557.5 A15.5 15.5 0 0 1 680.7351403872281 589.5 L1666 589.5" fill="#fff" transform="matrix(1,0,0,1,5.023702621459961,0)" style="transform:matrix(1, 0, 0, 1, 5.0237, 0);animation-play-state:paused" ></path>
<path d="M1430.913916425055 557.5 L1464.82783285011 557.5 A15.5 15.5 0 0 1 1464.82783285011 589.5 L1430.913916425055 589.5 A15.5 15.5 0 0 1 1430.913916425055 557.5" fill="#000" transform="matrix(1,0,0,1,-1006.1348876953125,0)" opacity="0.434783" style="transform:matrix(1, 0, 0, 1, -1006.13, 0);opacity:0.434783;animation-play-state:paused" ></path>
<path d="M1666 588.5 L648.8284209934886 588.5 A15.5 15.5 0 0 0 648.8284209934886 620.5 L1666 620.5" fill="#fff" transform="matrix(1,0,0,1,-37.604087829589844,0)" style="transform:matrix(1, 0, 0, 1, -37.6041, 0);animation-play-state:paused" ></path>
<path d="M793.8401806565737 588.5 L805.9627568740204 588.5 A15.5 15.5 0 0 1 805.9627568740204 620.5 L793.8401806565737 620.5 A15.5 15.5 0 0 1 793.8401806565737 588.5" fill="#fff" transform="matrix(1,0,0,1,0,0)" opacity="0.745342" style="transform:matrix(1, 0, 0, 1, 0, 0);opacity:0.745342;animation-play-state:paused" ></path>
<path d="M1666 619.5 L700.4665433795127 619.5 A15.5 15.5 0 0 1 700.4665433795127 651.5 L1666 651.5" fill="#fff" transform="matrix(1,0,0,1,19.504802703857422,0)" style="transform:matrix(1, 0, 0, 1, 19.5048, 0);animation-play-state:paused" ></path>
<path d="M1416.7881354951312 619.5 L1436.5762709902624 619.5 A15.5 15.5 0 0 1 1436.5762709902624 651.5 L1416.7881354951312 651.5 A15.5 15.5 0 0 1 1416.7881354951312 619.5" fill="#000" transform="matrix(1,0,0,1,-1212.79931640625,0)" opacity="0.248446" style="transform:matrix(1, 0, 0, 1, -1212.8, 0);opacity:0.248446;animation-play-state:paused" ></path>
<path d="M1666 650.5 L664.91702103268 650.5 A15.5 15.5 0 0 0 664.91702103268 682.5 L1666 682.5" fill="#fff" transform="matrix(1,0,0,1,-15.558052062988281,0)" style="transform:matrix(1, 0, 0, 1, -15.5581, 0);animation-play-state:paused" ></path>
<path d="M727.7215664226238 650.5 L759.5663898971588 650.5 A15.5 15.5 0 0 1 759.5663898971588 682.5 L727.7215664226238 682.5 A15.5 15.5 0 0 1 727.7215664226238 650.5" fill="#fff" transform="matrix(1,0,0,1,0,0)" opacity="0.372671" style="transform:matrix(1, 0, 0, 1, 0, 0);opacity:0.372671;animation-play-state:paused" ></path>
<path d="M1666 681.5 L696.4670020439278 681.5 A15.5 15.5 0 0 1 696.4670020439278 713.5 L1666 713.5" fill="#fff" transform="matrix(1,0,0,1,3.8204689025878906,0)" style="transform:matrix(1, 0, 0, 1, 3.82047, 0);animation-play-state:paused" ></path>
<path d="M1430.003870196484 681.5 L1463.0077403929681 681.5 A15.5 15.5 0 0 1 1463.0077403929681 713.5 L1430.003870196484 713.5 A15.5 15.5 0 0 1 1430.003870196484 681.5" fill="#000" transform="matrix(1,0,0,1,-784.715576171875,0)" opacity="0.372671" style="transform:matrix(1, 0, 0, 1, -784.716, 0);opacity:0.372671;animation-play-state:paused" ></path></g></mask></defs>


<rect x="0" y="0" width="1366" height="699" fill="url(#ldbk-photon-07azr2yvxyyn-lg)" mask="url(#ldbk-photon-07azr2yvxyyn-mask)" style="animation-play-state:paused" ></rect></g></svg>