<?xml version="1.0" encoding="utf-8"?><svg xmlns="http://www.w3.org/2000/svg" xmlns:xlink="http://www.w3.org/1999/xlink" width="1366" height="699" preserveAspectRatio="xMidYMid" viewBox="0 0 1366 699" style="z-index:1;margin-right:-2px;display:block;background-color:rgb(241, 242, 243);animation-play-state:paused" ><g transform="translate(683,349.5) scale(1,1) translate(-683,-349.5)" style="transform:matrix(1, 0, 0, 1, 0, 0);animation-play-state:paused" ><g id="bk-0.2637263786230757" style="animation-play-state:paused" ><path d="M 711 347 L 707 245 L 624 247 Z" stroke="#56935a" fill="#56935a" style="animation-play-state:paused" ></path>
<path d="M 624 247 L 615 353 L 711 347 Z" stroke="#539059" fill="#539059" style="animation-play-state:paused" ></path>
<path d="M 513 254 L 526 375 L 615 353 Z" stroke="#58945a" fill="#58945a" style="animation-play-state:paused" ></path>
<path d="M 615 353 L 629 469 L 711 347 Z" stroke="#4b8957" fill="#4b8957" style="animation-play-state:paused" ></path>
<path d="M 511 164 L 513 254 L 624 247 Z" stroke="#65a05d" fill="#65a05d" style="animation-play-state:paused" ></path>
<path d="M 624 247 L 513 254 L 615 353 Z" stroke="#5b975b" fill="#5b975b" style="animation-play-state:paused" ></path>
<path d="M 707 245 L 714 150 L 624 247 Z" stroke="#5f9a5b" fill="#5f9a5b" style="animation-play-state:paused" ></path>
<path d="M 745 459 L 814 366 L 711 347 Z" stroke="#458355" fill="#458355" style="animation-play-state:paused" ></path>
<path d="M 711 347 L 840 269 L 707 245 Z" stroke="#518e58" fill="#518e58" style="animation-play-state:paused" ></path>
<path d="M 707 245 L 814 154 L 714 150 Z" stroke="#609b5c" fill="#609b5c" style="animation-play-state:paused" ></path>
<path d="M 526 375 L 629 469 L 615 353 Z" stroke="#4e8b58" fill="#4e8b58" style="animation-play-state:paused" ></path>
<path d="M 714 150 L 607 141 L 624 247 Z" stroke="#65a05d" fill="#65a05d" style="animation-play-state:paused" ></path>
<path d="M 814 366 L 840 269 L 711 347 Z" stroke="#4a8857" fill="#4a8857" style="animation-play-state:paused" ></path>
<path d="M 629 469 L 745 459 L 711 347 Z" stroke="#458355" fill="#458355" style="animation-play-state:paused" ></path>
<path d="M 840 269 L 814 154 L 707 245 Z" stroke="#58945a" fill="#58945a" style="animation-play-state:paused" ></path>
<path d="M 607 141 L 511 164 L 624 247 Z" stroke="#69a25d" fill="#69a25d" style="animation-play-state:paused" ></path>
<path d="M 440 466 L 523 451 L 526 375 Z" stroke="#518e58" fill="#518e58" style="animation-play-state:paused" ></path>
<path d="M 526 375 L 523 451 L 629 469 Z" stroke="#4d8a57" fill="#4d8a57" style="animation-play-state:paused" ></path>
<path d="M 629 469 L 639 571 L 745 459 Z" stroke="#407d53" fill="#407d53" style="animation-play-state:paused" ></path>
<path d="M 396 361 L 526 375 L 513 254 Z" stroke="#5c985b" fill="#5c985b" style="animation-play-state:paused" ></path>
<path d="M 745 459 L 840 479 L 814 366 Z" stroke="#3f7c53" fill="#3f7c53" style="animation-play-state:paused" ></path>
<path d="M 814 366 L 923 340 L 840 269 Z" stroke="#478556" fill="#478556" style="animation-play-state:paused" ></path>
<path d="M 693 39 L 637 69 L 714 150 Z" stroke="#72aa5f" fill="#72aa5f" style="animation-play-state:paused" ></path>
<path d="M 714 150 L 637 69 L 607 141 Z" stroke="#6ea75e" fill="#6ea75e" style="animation-play-state:paused" ></path>
<path d="M 607 141 L 510 64 L 511 164 Z" stroke="#74ab5f" fill="#74ab5f" style="animation-play-state:paused" ></path>
<path d="M 911 467 L 923 340 L 814 366 Z" stroke="#3f7c53" fill="#3f7c53" style="animation-play-state:paused" ></path>
<path d="M 840 269 L 914 262 L 814 154 Z" stroke="#549159" fill="#549159" style="animation-play-state:paused" ></path>
<path d="M 923 340 L 914 262 L 840 269 Z" stroke="#4a8756" fill="#4a8756" style="animation-play-state:paused" ></path>
<path d="M 793 38 L 693 39 L 714 150 Z" stroke="#71a95f" fill="#71a95f" style="animation-play-state:paused" ></path>
<path d="M 410 245 L 396 361 L 513 254 Z" stroke="#649f5d" fill="#649f5d" style="animation-play-state:paused" ></path>
<path d="M 428 175 L 410 245 L 513 254 Z" stroke="#6ba45e" fill="#6ba45e" style="animation-play-state:paused" ></path>
<path d="M 546 573 L 639 571 L 629 469 Z" stroke="#427f54" fill="#427f54" style="animation-play-state:paused" ></path>
<path d="M 745 459 L 822 569 L 840 479 Z" stroke="#387550" fill="#387550" style="animation-play-state:paused" ></path>
<path d="M 639 571 L 731 583 L 745 459 Z" stroke="#3b7851" fill="#3b7851" style="animation-play-state:paused" ></path>
<path d="M 418 60 L 428 175 L 511 164 Z" stroke="#78af60" fill="#78af60" style="animation-play-state:paused" ></path>
<path d="M 511 164 L 428 175 L 513 254 Z" stroke="#6da65e" fill="#6da65e" style="animation-play-state:paused" ></path>
<path d="M 533 -26 L 510 64 L 637 69 Z" stroke="#81b561" fill="#81b561" style="animation-play-state:paused" ></path>
<path d="M 637 69 L 510 64 L 607 141 Z" stroke="#76ad60" fill="#76ad60" style="animation-play-state:paused" ></path>
<path d="M 396 361 L 440 466 L 526 375 Z" stroke="#57935a" fill="#57935a" style="animation-play-state:paused" ></path>
<path d="M 523 451 L 546 573 L 629 469 Z" stroke="#478455" fill="#478455" style="animation-play-state:paused" ></path>
<path d="M 928 81 L 793 38 L 814 154 Z" stroke="#69a35d" fill="#69a35d" style="animation-play-state:paused" ></path>
<path d="M 814 154 L 793 38 L 714 150 Z" stroke="#69a25d" fill="#69a25d" style="animation-play-state:paused" ></path>
<path d="M 914 262 L 911 168 L 814 154 Z" stroke="#57945a" fill="#57945a" style="animation-play-state:paused" ></path>
<path d="M 840 479 L 911 467 L 814 366 Z" stroke="#3b7851" fill="#3b7851" style="animation-play-state:paused" ></path>
<path d="M 923 340 L 1025 267 L 914 262 Z" stroke="#478556" fill="#478556" style="animation-play-state:paused" ></path>
<path d="M 914 262 L 1038 183 L 911 168 Z" stroke="#539059" fill="#539059" style="animation-play-state:paused" ></path>
<path d="M 906 554 L 911 467 L 840 479 Z" stroke="#34704e" fill="#34704e" style="animation-play-state:paused" ></path>
<path d="M 731 583 L 822 569 L 745 459 Z" stroke="#387450" fill="#387450" style="animation-play-state:paused" ></path>
<path d="M 440 466 L 546 573 L 523 451 Z" stroke="#4b8857" fill="#4b8857" style="animation-play-state:paused" ></path>
<path d="M 639 571 L 702 665 L 731 583 Z" stroke="#387550" fill="#387550" style="animation-play-state:paused" ></path>
<path d="M 510 64 L 418 60 L 511 164 Z" stroke="#7cb261" fill="#7cb261" style="animation-play-state:paused" ></path>
<path d="M 314 241 L 305 350 L 410 245 Z" stroke="#6ca55e" fill="#6ca55e" style="animation-play-state:paused" ></path>
<path d="M 533 -26 L 418 60 L 510 64 Z" stroke="#86b962" fill="#86b962" style="animation-play-state:paused" ></path>
<path d="M 793 38 L 722 -35 L 693 39 Z" stroke="#7bb160" fill="#7bb160" style="animation-play-state:paused" ></path>
<path d="M 693 39 L 614 -47 L 637 69 Z" stroke="#7fb461" fill="#7fb461" style="animation-play-state:paused" ></path>
<path d="M 722 -35 L 614 -47 L 693 39 Z" stroke="#83b762" fill="#83b762" style="animation-play-state:paused" ></path>
<path d="M 911 168 L 928 81 L 814 154 Z" stroke="#609b5c" fill="#609b5c" style="animation-play-state:paused" ></path>
<path d="M 793 38 L 805 -62 L 722 -35 Z" stroke="#80b461" fill="#80b461" style="animation-play-state:paused" ></path>
<path d="M 1038 183 L 928 81 L 911 168 Z" stroke="#5c985b" fill="#5c985b" style="animation-play-state:paused" ></path>
<path d="M 546 573 L 612 661 L 639 571 Z" stroke="#3e7b52" fill="#3e7b52" style="animation-play-state:paused" ></path>
<path d="M 731 583 L 801 644 L 822 569 Z" stroke="#336f4d" fill="#336f4d" style="animation-play-state:paused" ></path>
<path d="M 316 458 L 412 546 L 440 466 Z" stroke="#549059" fill="#549059" style="animation-play-state:paused" ></path>
<path d="M 440 466 L 412 546 L 546 573 Z" stroke="#4b8957" fill="#4b8957" style="animation-play-state:paused" ></path>
<path d="M 546 573 L 524 675 L 612 661 Z" stroke="#3f7c53" fill="#3f7c53" style="animation-play-state:paused" ></path>
<path d="M 612 661 L 702 665 L 639 571 Z" stroke="#397650" fill="#397650" style="animation-play-state:paused" ></path>
<path d="M 801 644 L 906 554 L 822 569 Z" stroke="#306b4c" fill="#306b4c" style="animation-play-state:paused" ></path>
<path d="M 822 569 L 906 554 L 840 479 Z" stroke="#336f4e" fill="#336f4e" style="animation-play-state:paused" ></path>
<path d="M 1029 372 L 1025 267 L 923 340 Z" stroke="#417e54" fill="#417e54" style="animation-play-state:paused" ></path>
<path d="M 614 -47 L 533 -26 L 637 69 Z" stroke="#86b962" fill="#86b962" style="animation-play-state:paused" ></path>
<path d="M 410 245 L 305 350 L 396 361 Z" stroke="#65a05d" fill="#65a05d" style="animation-play-state:paused" ></path>
<path d="M 396 361 L 316 458 L 440 466 Z" stroke="#59955a" fill="#59955a" style="animation-play-state:paused" ></path>
<path d="M 314 241 L 410 245 L 323 145 Z" stroke="#74ac5f" fill="#74ac5f" style="animation-play-state:paused" ></path>
<path d="M 323 145 L 410 245 L 428 175 Z" stroke="#74ac5f" fill="#74ac5f" style="animation-play-state:paused" ></path>
<path d="M 1029 372 L 923 340 L 911 467 Z" stroke="#3b7851" fill="#3b7851" style="animation-play-state:paused" ></path>
<path d="M 1008 451 L 1029 372 L 911 467 Z" stroke="#36724f" fill="#36724f" style="animation-play-state:paused" ></path>
<path d="M 702 665 L 801 644 L 731 583 Z" stroke="#336f4e" fill="#336f4e" style="animation-play-state:paused" ></path>
<path d="M 924 -40 L 805 -62 L 793 38 Z" stroke="#7db261" fill="#7db261" style="animation-play-state:paused" ></path>
<path d="M 722 -35 L 711 -136 L 614 -47 Z" stroke="#8ebf63" fill="#8ebf63" style="animation-play-state:paused" ></path>
<path d="M 305 350 L 316 458 L 396 361 Z" stroke="#609b5c" fill="#609b5c" style="animation-play-state:paused" ></path>
<path d="M 1010 542 L 1008 451 L 911 467 Z" stroke="#316d4d" fill="#316d4d" style="animation-play-state:paused" ></path>
<path d="M 1025 267 L 1038 183 L 914 262 Z" stroke="#4d8a57" fill="#4d8a57" style="animation-play-state:paused" ></path>
<path d="M 928 81 L 924 -40 L 793 38 Z" stroke="#72aa5f" fill="#72aa5f" style="animation-play-state:paused" ></path>
<path d="M 432 662 L 524 675 L 546 573 Z" stroke="#438054" fill="#438054" style="animation-play-state:paused" ></path>
<path d="M 612 661 L 632 774 L 702 665 Z" stroke="#37734f" fill="#37734f" style="animation-play-state:paused" ></path>
<path d="M 921 733 L 919 667 L 801 644 Z" stroke="#296348" fill="#296348" style="animation-play-state:paused" ></path>
<path d="M 335 67 L 323 145 L 418 60 Z" stroke="#85b862" fill="#85b862" style="animation-play-state:paused" ></path>
<path d="M 418 60 L 323 145 L 428 175 Z" stroke="#7db261" fill="#7db261" style="animation-play-state:paused" ></path>
<path d="M 410 -36 L 335 67 L 418 60 Z" stroke="#8dbe63" fill="#8dbe63" style="animation-play-state:paused" ></path>
<path d="M 1038 183 L 1002 38 L 928 81 Z" stroke="#619c5c" fill="#619c5c" style="animation-play-state:paused" ></path>
<path d="M 1002 38 L 924 -40 L 928 81 Z" stroke="#70a85f" fill="#70a85f" style="animation-play-state:paused" ></path>
<path d="M 1024 640 L 1010 542 L 906 554 Z" stroke="#296449" fill="#296449" style="animation-play-state:paused" ></path>
<path d="M 906 554 L 1010 542 L 911 467 Z" stroke="#2f6b4c" fill="#2f6b4c" style="animation-play-state:paused" ></path>
<path d="M 1120 376 L 1025 267 L 1029 372 Z" stroke="#3d7a52" fill="#3d7a52" style="animation-play-state:paused" ></path>
<path d="M 316 458 L 333 561 L 412 546 Z" stroke="#549159" fill="#549159" style="animation-play-state:paused" ></path>
<path d="M 412 546 L 432 662 L 546 573 Z" stroke="#488556" fill="#488556" style="animation-play-state:paused" ></path>
<path d="M 218 475 L 333 561 L 316 458 Z" stroke="#5a975b" fill="#5a975b" style="animation-play-state:paused" ></path>
<path d="M 333 561 L 432 662 L 412 546 Z" stroke="#4d8a57" fill="#4d8a57" style="animation-play-state:paused" ></path>
<path d="M 221 154 L 218 263 L 314 241 Z" stroke="#7ab060" fill="#7ab060" style="animation-play-state:paused" ></path>
<path d="M 314 241 L 218 263 L 305 350 Z" stroke="#70a85f" fill="#70a85f" style="animation-play-state:paused" ></path>
<path d="M 305 350 L 218 359 L 316 458 Z" stroke="#659f5d" fill="#659f5d" style="animation-play-state:paused" ></path>
<path d="M 221 154 L 314 241 L 323 145 Z" stroke="#7db261" fill="#7db261" style="animation-play-state:paused" ></path>
<path d="M 511 -138 L 410 -36 L 533 -26 Z" stroke="#98c564" fill="#98c564" style="animation-play-state:paused" ></path>
<path d="M 533 -26 L 410 -36 L 418 60 Z" stroke="#8ebe63" fill="#8ebe63" style="animation-play-state:paused" ></path>
<path d="M 598 -154 L 533 -26 L 614 -47 Z" stroke="#94c364" fill="#94c364" style="animation-play-state:paused" ></path>
<path d="M 820 -144 L 711 -136 L 805 -62 Z" stroke="#91c163" fill="#91c163" style="animation-play-state:paused" ></path>
<path d="M 805 -62 L 711 -136 L 722 -35 Z" stroke="#8cbd63" fill="#8cbd63" style="animation-play-state:paused" ></path>
<path d="M 801 644 L 919 667 L 906 554 Z" stroke="#2c674a" fill="#2c674a" style="animation-play-state:paused" ></path>
<path d="M 724 769 L 801 644 L 702 665 Z" stroke="#316d4d" fill="#316d4d" style="animation-play-state:paused" ></path>
<path d="M 218 263 L 218 359 L 305 350 Z" stroke="#6ea65e" fill="#6ea65e" style="animation-play-state:paused" ></path>
<path d="M 711 -136 L 598 -154 L 614 -47 Z" stroke="#98c564" fill="#98c564" style="animation-play-state:paused" ></path>
<path d="M 508 765 L 632 774 L 524 675 Z" stroke="#3c7952" fill="#3c7952" style="animation-play-state:paused" ></path>
<path d="M 524 675 L 632 774 L 612 661 Z" stroke="#3b7751" fill="#3b7751" style="animation-play-state:paused" ></path>
<path d="M 1120 376 L 1124 260 L 1025 267 Z" stroke="#417e53" fill="#417e53" style="animation-play-state:paused" ></path>
<path d="M 1025 267 L 1124 260 L 1038 183 Z" stroke="#4a8756" fill="#4a8756" style="animation-play-state:paused" ></path>
<path d="M 1038 183 L 1123 62 L 1002 38 Z" stroke="#609b5c" fill="#609b5c" style="animation-play-state:paused" ></path>
<path d="M 1120 376 L 1029 372 L 1124 475 Z" stroke="#34704e" fill="#34704e" style="animation-play-state:paused" ></path>
<path d="M 632 774 L 724 769 L 702 665 Z" stroke="#336f4e" fill="#336f4e" style="animation-play-state:paused" ></path>
<path d="M 216 70 L 221 154 L 323 145 Z" stroke="#88ba62" fill="#88ba62" style="animation-play-state:paused" ></path>
<path d="M 118 246 L 130 382 L 218 359 Z" stroke="#74ac5f" fill="#74ac5f" style="animation-play-state:paused" ></path>
<path d="M 216 70 L 323 145 L 335 67 Z" stroke="#89bb62" fill="#89bb62" style="animation-play-state:paused" ></path>
<path d="M 1124 475 L 1029 372 L 1008 451 Z" stroke="#336f4d" fill="#336f4d" style="animation-play-state:paused" ></path>
<path d="M 218 359 L 218 475 L 316 458 Z" stroke="#639e5c" fill="#639e5c" style="animation-play-state:paused" ></path>
<path d="M 333 561 L 308 636 L 432 662 Z" stroke="#4e8b58" fill="#4e8b58" style="animation-play-state:paused" ></path>
<path d="M 907 -141 L 820 -144 L 805 -62 Z" stroke="#8fbf63" fill="#8fbf63" style="animation-play-state:paused" ></path>
<path d="M 711 -136 L 820 -144 L 598 -154 Z" stroke="#9bc764" fill="#9bc764" style="animation-play-state:paused" ></path>
<path d="M 907 -141 L 805 -62 L 924 -40 Z" stroke="#86b962" fill="#86b962" style="animation-play-state:paused" ></path>
<path d="M 1218 263 L 1128 180 L 1124 260 Z" stroke="#478556" fill="#478556" style="animation-play-state:paused" ></path>
<path d="M 1124 260 L 1128 180 L 1038 183 Z" stroke="#4d8a57" fill="#4d8a57" style="animation-play-state:paused" ></path>
<path d="M 1002 38 L 1021 -17 L 924 -40 Z" stroke="#74ac5f" fill="#74ac5f" style="animation-play-state:paused" ></path>
<path d="M 440 756 L 524 675 L 432 662 Z" stroke="#438154" fill="#438154" style="animation-play-state:paused" ></path>
<path d="M 440 756 L 508 765 L 524 675 Z" stroke="#417e53" fill="#417e53" style="animation-play-state:paused" ></path>
<path d="M 632 774 L 828 779 L 724 769 Z" stroke="#306c4c" fill="#306c4c" style="animation-play-state:paused" ></path>
<path d="M 598 -154 L 511 -138 L 533 -26 Z" stroke="#9cc865" fill="#9cc865" style="animation-play-state:paused" ></path>
<path d="M 820 -144 L 511 -138 L 598 -154 Z" stroke="#9fca65" fill="#9fca65" style="animation-play-state:paused" ></path>
<path d="M 1123 575 L 1124 475 L 1010 542 Z" stroke="#286248" fill="#286248" style="animation-play-state:paused" ></path>
<path d="M 1010 542 L 1124 475 L 1008 451 Z" stroke="#2d684b" fill="#2d684b" style="animation-play-state:paused" ></path>
<path d="M 1026 748 L 1024 640 L 919 667 Z" stroke="#235b45" fill="#235b45" style="animation-play-state:paused" ></path>
<path d="M 919 667 L 1024 640 L 906 554 Z" stroke="#286248" fill="#286248" style="animation-play-state:paused" ></path>
<path d="M 1123 62 L 1021 -17 L 1002 38 Z" stroke="#6ca55e" fill="#6ca55e" style="animation-play-state:paused" ></path>
<path d="M 440 756 L 828 779 L 632 774 Z" stroke="#36734f" fill="#36734f" style="animation-play-state:paused" ></path>
<path d="M 724 769 L 828 779 L 801 644 Z" stroke="#2d684b" fill="#2d684b" style="animation-play-state:paused" ></path>
<path d="M 221 563 L 308 636 L 333 561 Z" stroke="#559259" fill="#559259" style="animation-play-state:paused" ></path>
<path d="M 336 -126 L 326 -59 L 410 -36 Z" stroke="#a2cc65" fill="#a2cc65" style="animation-play-state:paused" ></path>
<path d="M 410 -36 L 326 -59 L 335 67 Z" stroke="#96c464" fill="#96c464" style="animation-play-state:paused" ></path>
<path d="M 828 779 L 921 733 L 801 644 Z" stroke="#2a6449" fill="#2a6449" style="animation-play-state:paused" ></path>
<path d="M 511 -138 L 413 -149 L 410 -36 Z" stroke="#a3cc65" fill="#a3cc65" style="animation-play-state:paused" ></path>
<path d="M 1128 180 L 1123 62 L 1038 183 Z" stroke="#57935a" fill="#57935a" style="animation-play-state:paused" ></path>
<path d="M 1006 -144 L 907 -141 L 924 -40 Z" stroke="#89bb62" fill="#89bb62" style="animation-play-state:paused" ></path>
<path d="M 326 -59 L 216 70 L 335 67 Z" stroke="#94c364" fill="#94c364" style="animation-play-state:paused" ></path>
<path d="M 118 246 L 218 359 L 218 263 Z" stroke="#77ad60" fill="#77ad60" style="animation-play-state:paused" ></path>
<path d="M 218 475 L 221 563 L 333 561 Z" stroke="#5b975b" fill="#5b975b" style="animation-play-state:paused" ></path>
<path d="M 114 564 L 221 563 L 218 475 Z" stroke="#609c5c" fill="#609c5c" style="animation-play-state:paused" ></path>
<path d="M 339 775 L 440 756 L 432 662 Z" stroke="#478455" fill="#478455" style="animation-play-state:paused" ></path>
<path d="M 508 765 L 440 756 L 632 774 Z" stroke="#3e7b52" fill="#3e7b52" style="animation-play-state:paused" ></path>
<path d="M 339 775 L 432 662 L 308 636 Z" stroke="#4b8957" fill="#4b8957" style="animation-play-state:paused" ></path>
<path d="M 1118 652 L 1123 575 L 1010 542 Z" stroke="#245c45" fill="#245c45" style="animation-play-state:paused" ></path>
<path d="M 1215 452 L 1206 350 L 1120 376 Z" stroke="#326e4d" fill="#326e4d" style="animation-play-state:paused" ></path>
<path d="M 1118 652 L 1010 542 L 1024 640 Z" stroke="#245c45" fill="#245c45" style="animation-play-state:paused" ></path>
<path d="M 137 163 L 218 263 L 221 154 Z" stroke="#82b661" fill="#82b661" style="animation-play-state:paused" ></path>
<path d="M 218 359 L 130 382 L 218 475 Z" stroke="#6aa45e" fill="#6aa45e" style="animation-play-state:paused" ></path>
<path d="M 1215 452 L 1120 376 L 1124 475 Z" stroke="#2f6a4b" fill="#2f6a4b" style="animation-play-state:paused" ></path>
<path d="M 1120 376 L 1206 350 L 1124 260 Z" stroke="#3b7851" fill="#3b7851" style="animation-play-state:paused" ></path>
<path d="M 1128 180 L 1208 141 L 1123 62 Z" stroke="#57945a" fill="#57945a" style="animation-play-state:paused" ></path>
<path d="M 1206 350 L 1218 263 L 1124 260 Z" stroke="#3f7c53" fill="#3f7c53" style="animation-play-state:paused" ></path>
<path d="M 216 70 L 137 163 L 221 154 Z" stroke="#8bbd63" fill="#8bbd63" style="animation-play-state:paused" ></path>
<path d="M 137 163 L 118 246 L 218 263 Z" stroke="#81b561" fill="#81b561" style="animation-play-state:paused" ></path>
<path d="M 198 -154 L 336 -126 L 413 -149 Z" stroke="#b2d667" fill="#b2d667" style="animation-play-state:paused" ></path>
<path d="M 413 -149 L 336 -126 L 410 -36 Z" stroke="#a6ce66" fill="#a6ce66" style="animation-play-state:paused" ></path>
<path d="M 326 -59 L 228 -36 L 216 70 Z" stroke="#9dc865" fill="#9dc865" style="animation-play-state:paused" ></path>
<path d="M 216 70 L 116 58 L 137 163 Z" stroke="#93c264" fill="#93c264" style="animation-play-state:paused" ></path>
<path d="M 828 779 L 1026 748 L 921 733 Z" stroke="#255d46" fill="#255d46" style="animation-play-state:paused" ></path>
<path d="M 921 733 L 1026 748 L 919 667 Z" stroke="#245c45" fill="#245c45" style="animation-play-state:paused" ></path>
<path d="M 1218 263 L 1208 141 L 1128 180 Z" stroke="#4c8957" fill="#4c8957" style="animation-play-state:paused" ></path>
<path d="M 198 -154 L 228 -36 L 326 -59 Z" stroke="#abd166" fill="#abd166" style="animation-play-state:paused" ></path>
<path d="M 1121 -149 L 1006 -144 L 1021 -17 Z" stroke="#84b862" fill="#84b862" style="animation-play-state:paused" ></path>
<path d="M 1021 -17 L 1006 -144 L 924 -40 Z" stroke="#80b461" fill="#80b461" style="animation-play-state:paused" ></path>
<path d="M 907 -141 L 1006 -144 L 820 -144 Z" stroke="#92c163" fill="#92c163" style="animation-play-state:paused" ></path>
<path d="M 1116 -23 L 1021 -17 L 1123 62 Z" stroke="#6ea75e" fill="#6ea75e" style="animation-play-state:paused" ></path>
<path d="M 1239 562 L 1215 452 L 1123 575 Z" stroke="#245d45" fill="#245d45" style="animation-play-state:paused" ></path>
<path d="M 1123 575 L 1215 452 L 1124 475 Z" stroke="#286248" fill="#286248" style="animation-play-state:paused" ></path>
<path d="M 1206 350 L 1313 254 L 1218 263 Z" stroke="#3d7a52" fill="#3d7a52" style="animation-play-state:paused" ></path>
<path d="M 1219 57 L 1116 -23 L 1123 62 Z" stroke="#68a25d" fill="#68a25d" style="animation-play-state:paused" ></path>
<path d="M 1026 748 L 1118 652 L 1024 640 Z" stroke="#205742" fill="#205742" style="animation-play-state:paused" ></path>
<path d="M 116 666 L 214 659 L 221 563 Z" stroke="#5b975b" fill="#5b975b" style="animation-play-state:paused" ></path>
<path d="M 221 563 L 214 659 L 308 636 Z" stroke="#57935a" fill="#57935a" style="animation-play-state:paused" ></path>
<path d="M 28 354 L 122 466 L 130 382 Z" stroke="#72aa5f" fill="#72aa5f" style="animation-play-state:paused" ></path>
<path d="M 130 382 L 122 466 L 218 475 Z" stroke="#6aa35e" fill="#6aa35e" style="animation-play-state:paused" ></path>
<path d="M 229 756 L 339 775 L 308 636 Z" stroke="#508d58" fill="#508d58" style="animation-play-state:paused" ></path>
<path d="M 1208 141 L 1219 57 L 1123 62 Z" stroke="#5d995b" fill="#5d995b" style="animation-play-state:paused" ></path>
<path d="M 1116 -23 L 1121 -149 L 1021 -17 Z" stroke="#7bb160" fill="#7bb160" style="animation-play-state:paused" ></path>
<path d="M 121 -42 L 116 58 L 216 70 Z" stroke="#9fc965" fill="#9fc965" style="animation-play-state:paused" ></path>
<path d="M 137 163 L 33 178 L 118 246 Z" stroke="#8abb62" fill="#8abb62" style="animation-play-state:paused" ></path>
<path d="M 122 466 L 114 564 L 218 475 Z" stroke="#65a05d" fill="#65a05d" style="animation-play-state:paused" ></path>
<path d="M 214 659 L 229 756 L 308 636 Z" stroke="#549159" fill="#549159" style="animation-play-state:paused" ></path>
<path d="M 1229 679 L 1239 562 L 1123 575 Z" stroke="#1e5441" fill="#1e5441" style="animation-play-state:paused" ></path>
<path d="M 1331 373 L 1313 254 L 1206 350 Z" stroke="#377450" fill="#377450" style="animation-play-state:paused" ></path>
<path d="M 1218 263 L 1313 254 L 1208 141 Z" stroke="#478455" fill="#478455" style="animation-play-state:paused" ></path>
<path d="M 1229 679 L 1123 575 L 1118 652 Z" stroke="#1e5441" fill="#1e5441" style="animation-play-state:paused" ></path>
<path d="M 1233 -130 L 1121 -149 L 1116 -23 Z" stroke="#81b561" fill="#81b561" style="animation-play-state:paused" ></path>
<path d="M 1006 -144 L 1121 -149 L 820 -144 Z" stroke="#8fbf63" fill="#8fbf63" style="animation-play-state:paused" ></path>
<path d="M 828 779 L 1117 758 L 1026 748 Z" stroke="#215943" fill="#215943" style="animation-play-state:paused" ></path>
<path d="M 1026 748 L 1117 758 L 1118 652 Z" stroke="#1e5340" fill="#1e5340" style="animation-play-state:paused" ></path>
<path d="M 123 787 L 229 756 L 214 659 Z" stroke="#58945a" fill="#58945a" style="animation-play-state:paused" ></path>
<path d="M 1307 454 L 1206 350 L 1215 452 Z" stroke="#2d684b" fill="#2d684b" style="animation-play-state:paused" ></path>
<path d="M 1208 141 L 1300 53 L 1219 57 Z" stroke="#5c985b" fill="#5c985b" style="animation-play-state:paused" ></path>
<path d="M 1219 57 L 1246 -21 L 1116 -23 Z" stroke="#6ba55e" fill="#6ba55e" style="animation-play-state:paused" ></path>
<path d="M 198 -154 L 121 -42 L 228 -36 Z" stroke="#afd467" fill="#afd467" style="animation-play-state:paused" ></path>
<path d="M 228 -36 L 121 -42 L 216 70 Z" stroke="#a1cb65" fill="#a1cb65" style="animation-play-state:paused" ></path>
<path d="M 116 58 L 33 178 L 137 163 Z" stroke="#92c163" fill="#92c163" style="animation-play-state:paused" ></path>
<path d="M 336 -126 L 198 -154 L 326 -59 Z" stroke="#aed367" fill="#aed367" style="animation-play-state:paused" ></path>
<path d="M 511 -138 L 198 -154 L 413 -149 Z" stroke="#afd467" fill="#afd467" style="animation-play-state:paused" ></path>
<path d="M 820 -144 L 198 -154 L 511 -138 Z" stroke="#a6ce66" fill="#a6ce66" style="animation-play-state:paused" ></path>
<path d="M -4 48 L 33 178 L 116 58 Z" stroke="#9cc865" fill="#9cc865" style="animation-play-state:paused" ></path>
<path d="M 118 246 L 28 354 L 130 382 Z" stroke="#7ab060" fill="#7ab060" style="animation-play-state:paused" ></path>
<path d="M 122 466 L 26 544 L 114 564 Z" stroke="#69a35e" fill="#69a35e" style="animation-play-state:paused" ></path>
<path d="M 33 178 L 30 246 L 118 246 Z" stroke="#89bb62" fill="#89bb62" style="animation-play-state:paused" ></path>
<path d="M 30 246 L 28 354 L 118 246 Z" stroke="#82b661" fill="#82b661" style="animation-play-state:paused" ></path>
<path d="M 114 564 L 116 666 L 221 563 Z" stroke="#609b5c" fill="#609b5c" style="animation-play-state:paused" ></path>
<path d="M 26 544 L 116 666 L 114 564 Z" stroke="#65a05d" fill="#65a05d" style="animation-play-state:paused" ></path>
<path d="M 1300 53 L 1246 -21 L 1219 57 Z" stroke="#65a05d" fill="#65a05d" style="animation-play-state:paused" ></path>
<path d="M 1333 556 L 1307 454 L 1239 562 Z" stroke="#215943" fill="#215943" style="animation-play-state:paused" ></path>
<path d="M 1239 562 L 1307 454 L 1215 452 Z" stroke="#265f46" fill="#265f46" style="animation-play-state:paused" ></path>
<path d="M 1307 454 L 1331 373 L 1206 350 Z" stroke="#2f6b4c" fill="#2f6b4c" style="animation-play-state:paused" ></path>
<path d="M 1117 758 L 1229 679 L 1118 652 Z" stroke="#1b503e" fill="#1b503e" style="animation-play-state:paused" ></path>
<path d="M -76 364 L 1 456 L 28 354 Z" stroke="#7db261" fill="#7db261" style="animation-play-state:paused" ></path>
<path d="M 28 354 L 1 456 L 122 466 Z" stroke="#74ab5f" fill="#74ab5f" style="animation-play-state:paused" ></path>
<path d="M 1313 254 L 1335 174 L 1208 141 Z" stroke="#4a8856" fill="#4a8856" style="animation-play-state:paused" ></path>
<path d="M 1423 255 L 1335 174 L 1313 254 Z" stroke="#438154" fill="#438154" style="animation-play-state:paused" ></path>
<path d="M 1335 174 L 1300 53 L 1208 141 Z" stroke="#559159" fill="#559159" style="animation-play-state:paused" ></path>
<path d="M 1 456 L 26 544 L 122 466 Z" stroke="#6fa75f" fill="#6fa75f" style="animation-play-state:paused" ></path>
<path d="M 1316 653 L 1333 556 L 1239 562 Z" stroke="#1c513f" fill="#1c513f" style="animation-play-state:paused" ></path>
<path d="M 1442 369 L 1423 255 L 1331 373 Z" stroke="#34704e" fill="#34704e" style="animation-play-state:paused" ></path>
<path d="M 1331 373 L 1423 255 L 1313 254 Z" stroke="#3a7751" fill="#3a7751" style="animation-play-state:paused" ></path>
<path d="M 24 -33 L 116 58 L 121 -42 Z" stroke="#aad066" fill="#aad066" style="animation-play-state:paused" ></path>
<path d="M 24 -33 L -4 48 L 116 58 Z" stroke="#a8cf66" fill="#a8cf66" style="animation-play-state:paused" ></path>
<path d="M -77 172 L -61 273 L 30 246 Z" stroke="#90c063" fill="#90c063" style="animation-play-state:paused" ></path>
<path d="M 30 246 L -61 273 L 28 354 Z" stroke="#86b962" fill="#86b962" style="animation-play-state:paused" ></path>
<path d="M 1246 -21 L 1233 -130 L 1116 -23 Z" stroke="#77ae60" fill="#77ae60" style="animation-play-state:paused" ></path>
<path d="M 1314 -35 L 1233 -130 L 1246 -21 Z" stroke="#76ad60" fill="#76ad60" style="animation-play-state:paused" ></path>
<path d="M 7 768 L 123 787 L 116 666 Z" stroke="#619c5c" fill="#619c5c" style="animation-play-state:paused" ></path>
<path d="M 116 666 L 123 787 L 214 659 Z" stroke="#5c975b" fill="#5c975b" style="animation-play-state:paused" ></path>
<path d="M 229 756 L 123 787 L 339 775 Z" stroke="#549159" fill="#549159" style="animation-play-state:paused" ></path>
<path d="M 339 775 L 123 787 L 440 756 Z" stroke="#4e8b58" fill="#4e8b58" style="animation-play-state:paused" ></path>
<path d="M 440 756 L 123 787 L 828 779 Z" stroke="#427f54" fill="#427f54" style="animation-play-state:paused" ></path>
<path d="M 828 779 L 1215 766 L 1117 758 Z" stroke="#1e5441" fill="#1e5441" style="animation-play-state:paused" ></path>
<path d="M 1117 758 L 1215 766 L 1229 679 Z" stroke="#194c3c" fill="#194c3c" style="animation-play-state:paused" ></path>
<path d="M 1229 679 L 1316 653 L 1239 562 Z" stroke="#1b4e3e" fill="#1b4e3e" style="animation-play-state:paused" ></path>
<path d="M 820 -144 L 102 -138 L 198 -154 Z" stroke="#afd467" fill="#afd467" style="animation-play-state:paused" ></path>
<path d="M 198 -154 L 102 -138 L 121 -42 Z" stroke="#b9d968" fill="#b9d968" style="animation-play-state:paused" ></path>
<path d="M 102 -138 L 24 -33 L 121 -42 Z" stroke="#b6d867" fill="#b6d867" style="animation-play-state:paused" ></path>
<path d="M 1316 748 L 1316 653 L 1229 679 Z" stroke="#16483a" fill="#16483a" style="animation-play-state:paused" ></path>
<path d="M 1441 -15 L 1314 -35 L 1300 53 Z" stroke="#68a25d" fill="#68a25d" style="animation-play-state:paused" ></path>
<path d="M 1300 53 L 1314 -35 L 1246 -21 Z" stroke="#6aa45e" fill="#6aa45e" style="animation-play-state:paused" ></path>
<path d="M -60 675 L 28 666 L 26 544 Z" stroke="#6ca55e" fill="#6ca55e" style="animation-play-state:paused" ></path>
<path d="M 26 544 L 28 666 L 116 666 Z" stroke="#66a15d" fill="#66a15d" style="animation-play-state:paused" ></path>
<path d="M -77 172 L 33 178 L -4 48 Z" stroke="#9cc865" fill="#9cc865" style="animation-play-state:paused" ></path>
<path d="M -77 172 L 30 246 L 33 178 Z" stroke="#92c163" fill="#92c163" style="animation-play-state:paused" ></path>
<path d="M 1 456 L -84 460 L 26 544 Z" stroke="#75ac60" fill="#75ac60" style="animation-play-state:paused" ></path>
<path d="M -61 273 L -76 364 L 28 354 Z" stroke="#85b862" fill="#85b862" style="animation-play-state:paused" ></path>
<path d="M 1399 452 L 1307 454 L 1333 556 Z" stroke="#235c45" fill="#235c45" style="animation-play-state:paused" ></path>
<path d="M 1399 452 L 1331 373 L 1307 454 Z" stroke="#2a6449" fill="#2a6449" style="animation-play-state:paused" ></path>
<path d="M 1335 174 L 1414 150 L 1300 53 Z" stroke="#539059" fill="#539059" style="animation-play-state:paused" ></path>
<path d="M -76 364 L -84 460 L 1 456 Z" stroke="#7db261" fill="#7db261" style="animation-play-state:paused" ></path>
<path d="M -85 52 L -77 172 L -4 48 Z" stroke="#a6ce66" fill="#a6ce66" style="animation-play-state:paused" ></path>
<path d="M -61 273 L -189 265 L -76 364 Z" stroke="#8fbf63" fill="#8fbf63" style="animation-play-state:paused" ></path>
<path d="M 1425 567 L 1399 452 L 1333 556 Z" stroke="#1f5541" fill="#1f5541" style="animation-play-state:paused" ></path>
<path d="M 1423 255 L 1414 150 L 1335 174 Z" stroke="#488556" fill="#488556" style="animation-play-state:paused" ></path>
<path d="M 1399 452 L 1442 369 L 1331 373 Z" stroke="#2c674a" fill="#2c674a" style="animation-play-state:paused" ></path>
<path d="M 1521 158 L 1437 70 L 1414 150 Z" stroke="#518e58" fill="#518e58" style="animation-play-state:paused" ></path>
<path d="M 102 -138 L 21 -153 L 24 -33 Z" stroke="#bfdd68" fill="#bfdd68" style="animation-play-state:paused" ></path>
<path d="M -65 -31 L -85 52 L -4 48 Z" stroke="#b0d467" fill="#b0d467" style="animation-play-state:paused" ></path>
<path d="M 1215 766 L 1316 748 L 1229 679 Z" stroke="#16473a" fill="#16473a" style="animation-play-state:paused" ></path>
<path d="M 1399 647 L 1425 567 L 1333 556 Z" stroke="#1a4d3d" fill="#1a4d3d" style="animation-play-state:paused" ></path>
<path d="M 1314 -35 L 1303 -136 L 1233 -130 Z" stroke="#7db361" fill="#7db361" style="animation-play-state:paused" ></path>
<path d="M 1233 -130 L 1303 -136 L 1121 -149 Z" stroke="#87b962" fill="#87b962" style="animation-play-state:paused" ></path>
<path d="M 1408 -149 L 1303 -136 L 1314 -35 Z" stroke="#7eb361" fill="#7eb361" style="animation-play-state:paused" ></path>
<path d="M -65 -31 L -4 48 L 24 -33 Z" stroke="#b2d567" fill="#b2d567" style="animation-play-state:paused" ></path>
<path d="M -77 172 L -189 265 L -61 273 Z" stroke="#96c464" fill="#96c464" style="animation-play-state:paused" ></path>
<path d="M -183 457 L -84 460 L -76 364 Z" stroke="#83b662" fill="#83b662" style="animation-play-state:paused" ></path>
<path d="M -183 579 L -91 553 L -84 460 Z" stroke="#7bb161" fill="#7bb161" style="animation-play-state:paused" ></path>
<path d="M -84 460 L -91 553 L 26 544 Z" stroke="#76ad60" fill="#76ad60" style="animation-play-state:paused" ></path>
<path d="M -60 675 L 7 768 L 28 666 Z" stroke="#6aa35e" fill="#6aa35e" style="animation-play-state:paused" ></path>
<path d="M 28 666 L 7 768 L 116 666 Z" stroke="#649f5d" fill="#649f5d" style="animation-play-state:paused" ></path>
<path d="M 1521 158 L 1414 150 L 1423 255 Z" stroke="#478556" fill="#478556" style="animation-play-state:paused" ></path>
<path d="M 1414 150 L 1437 70 L 1300 53 Z" stroke="#58945a" fill="#58945a" style="animation-play-state:paused" ></path>
<path d="M 1399 647 L 1333 556 L 1316 653 Z" stroke="#184b3c" fill="#184b3c" style="animation-play-state:paused" ></path>
<path d="M 1532 476 L 1523 364 L 1442 369 Z" stroke="#2a6449" fill="#2a6449" style="animation-play-state:paused" ></path>
<path d="M 21 -153 L -65 -31 L 24 -33 Z" stroke="#bddc68" fill="#bddc68" style="animation-play-state:paused" ></path>
<path d="M 1316 748 L 1399 647 L 1316 653 Z" stroke="#154538" fill="#154538" style="animation-play-state:paused" ></path>
<path d="M -91 553 L -60 675 L 26 544 Z" stroke="#71a95f" fill="#71a95f" style="animation-play-state:paused" ></path>
<path d="M 1521 57 L 1441 -15 L 1437 70 Z" stroke="#609b5c" fill="#609b5c" style="animation-play-state:paused" ></path>
<path d="M 1437 70 L 1441 -15 L 1300 53 Z" stroke="#619c5c" fill="#619c5c" style="animation-play-state:paused" ></path>
<path d="M -168 177 L -77 172 L -159 73 Z" stroke="#a5ce66" fill="#a5ce66" style="animation-play-state:paused" ></path>
<path d="M -168 177 L -189 265 L -77 172 Z" stroke="#9ec965" fill="#9ec965" style="animation-play-state:paused" ></path>
<path d="M -91 553 L -183 579 L -60 675 Z" stroke="#77ae60" fill="#77ae60" style="animation-play-state:paused" ></path>
<path d="M -189 265 L -174 368 L -76 364 Z" stroke="#8fbf63" fill="#8fbf63" style="animation-play-state:paused" ></path>
<path d="M 1532 476 L 1442 369 L 1399 452 Z" stroke="#276047" fill="#276047" style="animation-play-state:paused" ></path>
<path d="M 1442 369 L 1523 364 L 1423 255 Z" stroke="#336f4e" fill="#336f4e" style="animation-play-state:paused" ></path>
<path d="M 1532 476 L 1399 452 L 1517 545 Z" stroke="#205742" fill="#205742" style="animation-play-state:paused" ></path>
<path d="M -159 73 L -77 172 L -85 52 Z" stroke="#a9d066" fill="#a9d066" style="animation-play-state:paused" ></path>
<path d="M -189 265 L -274 384 L -174 368 Z" stroke="#94c364" fill="#94c364" style="animation-play-state:paused" ></path>
<path d="M 1528 280 L 1521 158 L 1423 255 Z" stroke="#417e53" fill="#417e53" style="animation-play-state:paused" ></path>
<path d="M 1523 364 L 1528 280 L 1423 255 Z" stroke="#37734f" fill="#37734f" style="animation-play-state:paused" ></path>
<path d="M -178 -50 L -159 73 L -85 52 Z" stroke="#b8d967" fill="#b8d967" style="animation-play-state:paused" ></path>
<path d="M -178 -50 L -85 52 L -65 -31 Z" stroke="#bbdb68" fill="#bbdb68" style="animation-play-state:paused" ></path>
<path d="M -274 384 L -183 457 L -174 368 Z" stroke="#8ebe63" fill="#8ebe63" style="animation-play-state:paused" ></path>
<path d="M -174 368 L -183 457 L -76 364 Z" stroke="#88ba62" fill="#88ba62" style="animation-play-state:paused" ></path>
<path d="M 1517 545 L 1399 452 L 1425 567 Z" stroke="#1e5441" fill="#1e5441" style="animation-play-state:paused" ></path>
<path d="M 1523 364 L 1617 339 L 1528 280 Z" stroke="#326e4d" fill="#326e4d" style="animation-play-state:paused" ></path>
<path d="M 1399 647 L 1517 545 L 1425 567 Z" stroke="#184b3c" fill="#184b3c" style="animation-play-state:paused" ></path>
<path d="M 1520 -50 L 1408 -149 L 1441 -15 Z" stroke="#75ac5f" fill="#75ac5f" style="animation-play-state:paused" ></path>
<path d="M 1441 -15 L 1408 -149 L 1314 -35 Z" stroke="#75ac5f" fill="#75ac5f" style="animation-play-state:paused" ></path>
<path d="M 102 -138 L -77 -160 L 21 -153 Z" stroke="#cae369" fill="#cae369" style="animation-play-state:paused" ></path>
<path d="M 21 -153 L -77 -160 L -65 -31 Z" stroke="#c8e269" fill="#c8e269" style="animation-play-state:paused" ></path>
<path d="M 1316 748 L 1416 749 L 1399 647 Z" stroke="#124135" fill="#124135" style="animation-play-state:paused" ></path>
<path d="M 1399 647 L 1525 685 L 1517 545 Z" stroke="#154538" fill="#154538" style="animation-play-state:paused" ></path>
<path d="M 1215 766 L 1416 749 L 1316 748 Z" stroke="#134236" fill="#134236" style="animation-play-state:paused" ></path>
<path d="M 1531 775 L 1416 749 L 1637 764 Z" stroke="#0c352d" fill="#0c352d" style="animation-play-state:paused" ></path>
<path d="M -183 457 L -183 579 L -84 460 Z" stroke="#81b561" fill="#81b561" style="animation-play-state:paused" ></path>
<path d="M -183 654 L -91 744 L -60 675 Z" stroke="#74ab5f" fill="#74ab5f" style="animation-play-state:paused" ></path>
<path d="M -60 675 L -91 744 L 7 768 Z" stroke="#6da65e" fill="#6da65e" style="animation-play-state:paused" ></path>
<path d="M 7 768 L -279 751 L 123 787 Z" stroke="#6ca55e" fill="#6ca55e" style="animation-play-state:paused" ></path>
<path d="M 1611 145 L 1521 57 L 1521 158 Z" stroke="#518e58" fill="#518e58" style="animation-play-state:paused" ></path>
<path d="M 1521 158 L 1521 57 L 1437 70 Z" stroke="#56925a" fill="#56925a" style="animation-play-state:paused" ></path>
<path d="M -167 -141 L -178 -50 L -65 -31 Z" stroke="#c9e269" fill="#c9e269" style="animation-play-state:paused" ></path>
<path d="M -288 254 L -189 265 L -168 177 Z" stroke="#a1cb65" fill="#a1cb65" style="animation-play-state:paused" ></path>
<path d="M -288 254 L -274 384 L -189 265 Z" stroke="#9cc865" fill="#9cc865" style="animation-play-state:paused" ></path>
<path d="M 1606 46 L 1520 -50 L 1521 57 Z" stroke="#639e5c" fill="#639e5c" style="animation-play-state:paused" ></path>
<path d="M 1521 57 L 1520 -50 L 1441 -15 Z" stroke="#67a15d" fill="#67a15d" style="animation-play-state:paused" ></path>
<path d="M -183 579 L -183 654 L -60 675 Z" stroke="#78af60" fill="#78af60" style="animation-play-state:paused" ></path>
<path d="M -281 581 L -183 654 L -183 579 Z" stroke="#81b561" fill="#81b561" style="animation-play-state:paused" ></path>
<path d="M -282 460 L -183 579 L -183 457 Z" stroke="#87ba62" fill="#87ba62" style="animation-play-state:paused" ></path>
<path d="M -288 254 L -168 177 L -298 156 Z" stroke="#a9d066" fill="#a9d066" style="animation-play-state:paused" ></path>
<path d="M 1416 749 L 1525 685 L 1399 647 Z" stroke="#113f34" fill="#113f34" style="animation-play-state:paused" ></path>
<path d="M 1623 562 L 1599 455 L 1532 476 Z" stroke="#1e5441" fill="#1e5441" style="animation-play-state:paused" ></path>
<path d="M 1599 455 L 1617 339 L 1523 364 Z" stroke="#2b6549" fill="#2b6549" style="animation-play-state:paused" ></path>
<path d="M -77 -160 L -167 -141 L -65 -31 Z" stroke="#cde569" fill="#cde569" style="animation-play-state:paused" ></path>
<path d="M -298 156 L -168 177 L -283 63 Z" stroke="#b1d567" fill="#b1d567" style="animation-play-state:paused" ></path>
<path d="M 1599 455 L 1523 364 L 1532 476 Z" stroke="#265f46" fill="#265f46" style="animation-play-state:paused" ></path>
<path d="M 1528 280 L 1611 145 L 1521 158 Z" stroke="#458355" fill="#458355" style="animation-play-state:paused" ></path>
<path d="M 1623 562 L 1532 476 L 1517 545 Z" stroke="#1c503f" fill="#1c503f" style="animation-play-state:paused" ></path>
<path d="M -274 384 L -282 460 L -183 457 Z" stroke="#8fbf63" fill="#8fbf63" style="animation-play-state:paused" ></path>
<path d="M 1620 269 L 1611 145 L 1528 280 Z" stroke="#407d53" fill="#407d53" style="animation-play-state:paused" ></path>
<path d="M 1620 269 L 1528 280 L 1617 339 Z" stroke="#36734f" fill="#36734f" style="animation-play-state:paused" ></path>
<path d="M -168 177 L -159 73 L -283 63 Z" stroke="#b1d567" fill="#b1d567" style="animation-play-state:paused" ></path>
<path d="M -274 384 L -288 254 L -282 460 Z" stroke="#98c564" fill="#98c564" style="animation-play-state:paused" ></path>
<path d="M 1626 -53 L 1521 -156 L 1520 -50 Z" stroke="#77ad60" fill="#77ad60" style="animation-play-state:paused" ></path>
<path d="M 1520 -50 L 1521 -156 L 1408 -149 Z" stroke="#7eb361" fill="#7eb361" style="animation-play-state:paused" ></path>
<path d="M 1408 -149 L 1521 -156 L 1303 -136 Z" stroke="#85b862" fill="#85b862" style="animation-play-state:paused" ></path>
<path d="M 1303 -136 L 1521 -156 L 1121 -149 Z" stroke="#86b962" fill="#86b962" style="animation-play-state:paused" ></path>
<path d="M 1121 -149 L 1521 -156 L 820 -144 Z" stroke="#8bbc63" fill="#8bbc63" style="animation-play-state:paused" ></path>
<path d="M 1599 455 L 1620 269 L 1617 339 Z" stroke="#2e6a4b" fill="#2e6a4b" style="animation-play-state:paused" ></path>
<path d="M -302 653 L -179 747 L -183 654 Z" stroke="#7eb361" fill="#7eb361" style="animation-play-state:paused" ></path>
<path d="M -183 654 L -179 747 L -91 744 Z" stroke="#77ae60" fill="#77ae60" style="animation-play-state:paused" ></path>
<path d="M -91 744 L -179 747 L 7 768 Z" stroke="#70a85f" fill="#70a85f" style="animation-play-state:paused" ></path>
<path d="M -283 63 L -159 73 L -178 -50 Z" stroke="#bddc68" fill="#bddc68" style="animation-play-state:paused" ></path>
<path d="M -272 -48 L -283 63 L -178 -50 Z" stroke="#c8e269" fill="#c8e269" style="animation-play-state:paused" ></path>
<path d="M 1416 749 L 1531 775 L 1525 685 Z" stroke="#0e3930" fill="#0e3930" style="animation-play-state:paused" ></path>
<path d="M 1525 685 L 1623 562 L 1517 545 Z" stroke="#164739" fill="#164739" style="animation-play-state:paused" ></path>
<path d="M 1637 764 L 1416 749 L 1215 766 Z" stroke="#0f3b32" fill="#0f3b32" style="animation-play-state:paused" ></path>
<path d="M 1623 657 L 1623 562 L 1525 685 Z" stroke="#124136" fill="#124136" style="animation-play-state:paused" ></path>
<path d="M 1599 455 L 1623 657 L 1620 269 Z" stroke="#225a44" fill="#225a44" style="animation-play-state:paused" ></path>
<path d="M -302 653 L -281 581 L -282 460 Z" stroke="#8abc62" fill="#8abc62" style="animation-play-state:paused" ></path>
<path d="M -282 460 L -281 581 L -183 579 Z" stroke="#88ba62" fill="#88ba62" style="animation-play-state:paused" ></path>
<path d="M 1620 269 L 1606 46 L 1611 145 Z" stroke="#4b8957" fill="#4b8957" style="animation-play-state:paused" ></path>
<path d="M 1611 145 L 1606 46 L 1521 57 Z" stroke="#57945a" fill="#57945a" style="animation-play-state:paused" ></path>
<path d="M -267 -141 L -272 -48 L -178 -50 Z" stroke="#d3e86a" fill="#d3e86a" style="animation-play-state:paused" ></path>
<path d="M -283 63 L -272 -48 L -298 156 Z" stroke="#c0de68" fill="#c0de68" style="animation-play-state:paused" ></path>
<path d="M 1627 -127 L 1626 -53 L 1606 46 Z" stroke="#6ea75e" fill="#6ea75e" style="animation-play-state:paused" ></path>
<path d="M 1606 46 L 1626 -53 L 1520 -50 Z" stroke="#69a35e" fill="#69a35e" style="animation-play-state:paused" ></path>
<path d="M -288 254 L -302 653 L -282 460 Z" stroke="#92c163" fill="#92c163" style="animation-play-state:paused" ></path>
<path d="M -281 581 L -302 653 L -183 654 Z" stroke="#84b762" fill="#84b762" style="animation-play-state:paused" ></path>
<path d="M 1531 775 L 1623 657 L 1525 685 Z" stroke="#0e3930" fill="#0e3930" style="animation-play-state:paused" ></path>
<path d="M 1623 562 L 1623 657 L 1599 455 Z" stroke="#194b3c" fill="#194b3c" style="animation-play-state:paused" ></path>
<path d="M -77 -160 L -267 -141 L -167 -141 Z" stroke="#daeb6b" fill="#daeb6b" style="animation-play-state:paused" ></path>
<path d="M -167 -141 L -267 -141 L -178 -50 Z" stroke="#d6e96a" fill="#d6e96a" style="animation-play-state:paused" ></path>
<path d="M -302 653 L -279 751 L -179 747 Z" stroke="#81b561" fill="#81b561" style="animation-play-state:paused" ></path>
<path d="M -179 747 L -279 751 L 7 768 Z" stroke="#76ad60" fill="#76ad60" style="animation-play-state:paused" ></path>
<path d="M 1620 269 L 1627 -127 L 1606 46 Z" stroke="#5a965b" fill="#5a965b" style="animation-play-state:paused" ></path>
<path d="M 1626 -53 L 1627 -127 L 1521 -156 Z" stroke="#7cb161" fill="#7cb161" style="animation-play-state:paused" ></path>
<path d="M 828 779 L 1637 764 L 1215 766 Z" stroke="#16483a" fill="#16483a" style="animation-play-state:paused" ></path>
<path d="M 1531 775 L 1637 764 L 1623 657 Z" stroke="#0c342d" fill="#0c342d" style="animation-play-state:paused" ></path>
<path d="M 1623 657 L 1637 764 L 1620 269 Z" stroke="#184a3b" fill="#184a3b" style="animation-play-state:paused" ></path>
<path d="M 123 787 L 1637 764 L 828 779 Z" stroke="#286248" fill="#286248" style="animation-play-state:paused" ></path></g>
<style type="text/css" style="animation-play-state:paused" >#bk-0.2637263786230757 path { stroke-width: 1 }</style></g></svg>